<?xml version="1.0" encoding="UTF-8"?>
<svg id="Layer_1" data-name="Layer 1" xmlns="http://www.w3.org/2000/svg" viewBox="0 0 768 768">
  <defs>
    <style>
      .cls-1, .cls-2 {
        fill: #097c56;
      }

      .cls-2 {
        font-family: MyriadConceptRoman-Bold, 'Myriad Variable Concept';
        font-size: 720.49px;
        font-variation-settings: 'wght' 700, 'wdth' 100;
        font-weight: 700;
      }
    </style>
  </defs>
  <g id="Dot_Pattern_Vector_Pack_12" data-name="Dot Pattern Vector Pack 12">
    <path class="cls-1" d="m384,80.06c41.06,0,80.85,8.03,118.29,23.86,36.19,15.31,68.7,37.23,96.63,65.16,27.93,27.93,49.85,60.44,65.16,96.63,15.83,37.43,23.86,77.23,23.86,118.29s-8.03,80.85-23.86,118.29c-15.31,36.19-37.23,68.7-65.16,96.63-27.93,27.93-60.44,49.85-96.63,65.16-37.43,15.83-77.23,23.86-118.29,23.86s-80.85-8.03-118.29-23.86c-36.19-15.31-68.7-37.23-96.63-65.16-27.93-27.93-49.85-60.44-65.16-96.63-15.83-37.43-23.86-77.23-23.86-118.29s8.03-80.85,23.86-118.29c15.31-36.19,37.23-68.7,65.16-96.63,27.93-27.93,60.44-49.85,96.63-65.16,37.43-15.83,77.23-23.86,118.29-23.86m0-58C184.11,22.06,22.06,184.11,22.06,384s162.04,361.94,361.94,361.94,361.94-162.04,361.94-361.94S583.89,22.06,384,22.06h0Z"/>
    <text class="cls-2" transform="translate(285.03 633.35)"><tspan x="0" y="0">i</tspan></text>
  </g>
</svg>