<?xml version="1.0" encoding="UTF-8"?>
<svg id="Layer_1" data-name="Layer 1" xmlns="http://www.w3.org/2000/svg" viewBox="0 0 768 768">
  <defs>
    <style>
      .cls-1 {
        fill: #fff;
      }

      .cls-2 {
        fill: #ffba0d;
      }

      .cls-3 {
        fill: #ff8b00;
      }
    </style>
  </defs>
  <g id="Dot_Pattern_Vector_Pack_12" data-name="Dot Pattern Vector Pack 12">
    <path class="cls-2" d="m554.97,41.04l-109.34,38.94-7.37-20.7c-5.62-15.79-22.98-24.03-38.78-18.41L53.92,163.93c-16.66,5.93-25.36,24.25-19.42,40.91l184.98,519.42c12.15,34.11,49.64,51.91,83.75,39.76l280.81-100c34.11-12.15,51.91-49.64,39.76-83.75l-27.2-76.39,109.34-38.94c23.03-8.2,35.06-33.53,26.85-56.56l-121.26-340.5c-8.2-23.03-33.53-35.06-56.56-26.85Zm79.55,355.35l-67.64,24.09-91.55-257.08,67.64-24.09,91.55,257.08Z"/>
    <path class="cls-3" d="m476.19,255.41H81.63s156.05,438.18,156.05,438.18c10.52,29.54,42.99,44.96,72.53,34.44l243.19-86.61c29.54-10.52,44.96-42.99,34.44-72.53l-23.56-66.16-88.08-247.32Z"/>
    <path class="cls-1" d="m308.14,100.44l70.57-26.58s25.31-5.06,34.17,13.29c8.86,18.35,43.03,118.33,43.03,118.33,0,0-36.7-60.75-65.81-72.14-29.11-11.39-133.83-13.38-81.96-32.91Z"/>
  </g>
</svg>