<?xml version="1.0" encoding="UTF-8"?>
<svg id="Layer_1" data-name="Layer 1" xmlns="http://www.w3.org/2000/svg" viewBox="0 0 768 768">
  <defs>
    <style>
      .cls-1 {
        fill: #ffba0d;
      }

      .cls-2 {
        fill: #ff8b00;
      }
    </style>
  </defs>
  <path class="cls-1" d="m669.79,348.72s-120.52-199.72-324.47-182.57C141.36,183.3,57.93,284.66,11.58,428.98c-46.35,144.32,49.44,295.41,234.86,277.84,185.41-17.57,160.69-183.26,271.94-179.47,111.25,3.79,143.01-24.61,163.78-68.95,20.2-43.11,6.64-82.64-12.36-109.68Zm-64.7,123c-29.23,0-52.93-19.14-52.93-42.74s23.7-42.74,52.93-42.74,52.93,19.14,52.93,42.74-23.7,42.74-52.93,42.74Z"/>
  <g>
    <path class="cls-2" d="m428.73,306.9c-37.36,38.99-70.99,81.46-107.26,121.41-31.21,34.65-62.48,69.69-93.69,104.94l-189.62,196.94c-6.08,6.32-6.51,15.98-1.43,22.79-.06.06-.11.13-.17.19,0,0,4.13,3.98,4.13,3.98.06-.06.13-.12.19-.17,6.99,4.82,16.64,4.03,22.72-2.29l189.07-196.38c22.15-21.14,44.52-42.6,63.1-60.58,50.24-50.33,106.18-98.91,156.02-149.37,37.54-38.97,72.13-80.41,105.33-123.27,4.37-5.74,8.71-11.51,13.03-17.31l47.68-49.52c6.07-6.31,6.51-15.95,1.45-22.75.05-.08.09-.15.14-.23l-4.13-3.98c-.08.05-.15.1-.22.15-6.99-4.79-16.61-3.99-22.68,2.31l-47.68,49.52c-5.63,4.53-11.23,9.09-16.8,13.68-41.57,34.8-81.67,70.94-119.19,109.93Z"/>
    <path class="cls-2" d="m768,50.32c-37.7-26.34-78.56-8.98-100.02,4.09-5.34,2.56-10.5,6.13-15.14,10.68-18.05,17.68-21.52,43.4-7.76,57.44,13.76,14.05,39.54,11.1,57.59-6.58,6.14-6.01,10.59-12.96,13.25-20.06h0c.58-1.54,1.06-3.08,1.47-4.62,13.99-40.12,50.62-40.95,50.62-40.95Z"/>
  </g>
  <path class="cls-2" d="m324.38,195.39s52.86-16.76,72.2,0,23.21,41.26,0,50.29c-23.21,9.03-32.23-1.29-64.47,0-32.23,1.29-7.74-50.29-7.74-50.29Z"/>
  <path class="cls-2" d="m191.38,226.13s52.86-16.76,72.2,0c19.34,16.76,23.21,41.26,0,50.29-23.21,9.03-32.23-1.29-64.47,0s-7.74-50.29-7.74-50.29Z"/>
  <path class="cls-2" d="m94.27,305.56s52.86-16.76,72.2,0c19.34,16.76,23.21,41.26,0,50.29-23.21,9.03-32.23-1.29-64.47,0-32.23,1.29-7.74-50.29-7.74-50.29Z"/>
  <path class="cls-2" d="m45.72,413.38s52.86-16.76,72.2,0c19.34,16.76,23.21,41.26,0,50.29-23.21,9.03-32.23-1.29-64.47,0-32.23,1.29-7.74-50.29-7.74-50.29Z"/>
</svg>