<?xml version="1.0" encoding="UTF-8"?>
<svg id="Layer_1" data-name="Layer 1" xmlns="http://www.w3.org/2000/svg" viewBox="0 0 768 768">
  <defs>
    <style>
      .cls-1 {
        fill: #ffba0d;
      }

      .cls-2 {
        fill: #ff8b00;
      }
    </style>
  </defs>
  <circle class="cls-1" cx="378.71" cy="466.07" r="253.01"/>
  <path class="cls-2" d="m186.01,30.25v180.96h-13.89V30.25h-17.04v180.96h-13.89V30.25h-17.39v180.96h-13.89V30.25h-18.14v185.23c0,26.42,11.98,48.78,28.53,56.44v456.17c0,22.18,12.46,40.16,27.84,40.16h0c15.37,0,27.84-17.98,27.84-40.16v-456.17c16.55-7.65,28.53-30.02,28.53-56.44V30.25h-18.48Z"/>
  <path class="cls-2" d="m554.66,351.76h39.63v389.75c0,14.77,12.6,26.74,28.15,26.74h0c15.55,0,28.15-11.97,28.15-26.74V2.73c-81.5-38.78-95.93,349.04-95.93,349.04Z"/>
</svg>