<?xml version="1.0" encoding="UTF-8"?>
<svg id="Layer_1" data-name="Layer 1" xmlns="http://www.w3.org/2000/svg" viewBox="0 0 768 768">
  <defs>
    <style>
      .cls-1 {
        fill: #c92568;
        fill-rule: evenodd;
      }
    </style>
  </defs>
  <g id="Dot_Pattern_Vector_Pack_12" data-name="Dot Pattern Vector Pack 12">
    <polygon class="cls-1" points="114.45 460.11 164.04 450.59 187.88 414.27 167.85 402.16 166.9 376.21 127.8 341.62 82.97 329.51 82.97 307.89 111.58 307.89 140.2 325.19 168.81 329.51 187.88 300.97 221.26 300.97 221.26 274.16 159.27 185.08 113.49 156.54 82.97 118.49 62.95 108.97 37.19 76.11 29.57 53.62 0 25.08 0 0 30.52 0 60.08 47.57 94.42 64.86 110.63 96 138.29 131.46 146.87 159.13 221.26 230.05 249.87 250.81 275.62 248.22 283.25 230.05 270.86 201.51 253.69 148.76 264.18 147.89 273.72 171.24 309 207.57 319.49 166.05 319.49 128 310.91 106.38 302.33 89.08 319.49 67.46 334.75 83.03 334.75 109.84 334.75 135.78 340.48 173.84 354.78 203.24 367.18 204.11 387.21 194.59 407.24 167.78 424.4 167.78 440.62 139.24 448.25 111.57 448.25 85.62 457.78 80.43 468.27 85.62 468.27 109.84 453.01 142.7 440.62 170.38 431.08 184.22 433.94 201.51 447.29 211.89 461.6 205.84 468.27 185.08 490.21 158.27 507.38 163.46 507.38 185.95 484.64 199.78 484.64 219.67 480.67 276.76 502.61 283.67 519.78 276.76 519.78 254.27 541.71 262.05 565.55 237.84 608.47 212.76 650.43 187.67 677.14 156.54 707.66 150.49 707.66 167.78 685.72 185.08 648.53 198.92 621.82 217.08 583.67 251.67 547.43 294.05 503.56 313.08 484.64 322.59 492.12 335.57 538.85 344.21 572.23 339.03 584.63 345.94 564.6 355.46 587.49 364.11 606.56 363.24 623.73 368.43 620.87 383.13 584.63 387.46 562.69 372.76 550.29 382.27 551.25 409.08 559.83 421.01 556.97 440.21 590.35 460.11 648.53 483.46 713.38 479.13 768 515.99 768 536.67 752.32 544.42 693.9 532.79 659.7 510.82 626.92 499.19 582.75 492.73 554.25 492.73 531.45 504.36 505.8 531.5 508.65 557.34 524.32 578.02 545.7 606.45 564.22 623.25 561.37 645.22 537.15 645.22 522.9 621.96 518.62 599.99 497.25 576.73 477.3 558.64 453.07 536.67 418.87 526.33 384 539.25 361.87 557.34 331.95 590.94 331.95 612.91 339.07 645.22 360.45 672.35 384 704.66 374.7 744.72 347.62 768 320.55 768 310.57 735.67 313.42 689.15 321.97 642.63 313.42 605.16 297.75 597.4 283.5 607.74 276.37 637.46 267.82 664.6 262.12 687.86 239.32 700.78 225.07 685.28 233.62 662.02 252.15 645.22 260.7 615.49 264.97 590.94 246.44 596.11 245.02 619.37 235.04 632.29 219.37 618.08 217.94 587.07 227.92 554.76 227.92 534.08 215.09 526.33 230.77 499.19 225.07 475.93 203.69 461.72 180.89 468.18 169.49 481.1 135.29 506.95 99.67 509.53 86.84 488.85 96.82 463.01 114.45 460.11"/>
  </g>
</svg>