<?xml version="1.0" encoding="UTF-8"?>
<svg id="Layer_1" data-name="Layer 1" xmlns="http://www.w3.org/2000/svg" viewBox="0 0 768 768">
  <defs>
    <style>
      .cls-1 {
        fill: #cecece;
      }
    </style>
  </defs>
  <g id="Dot_Pattern_Vector_Pack_12" data-name="Dot Pattern Vector Pack 12">
    <path class="cls-1" d="m527.28,593.06c67.74-7.17,120.53-64.46,120.53-134.1V134.88C647.81,60.39,587.42,0,512.93,0h-255.45C183,0,122.61,60.39,122.61,134.88v324.08c0,69.11,51.99,125.99,118.99,133.86h-.66l-158.87,175.18h64.4l100.47-110.79h274.14l100.47,110.79h64.38l-158.64-174.94ZM298.75,28.93h166.79v46.33h-166.79V28.93Zm-108.76,185.44v-39.83c0-38.2,30.98-69.17,69.18-69.17h245.97c38.21,0,69.17,30.97,69.17,69.17v144.14c0,36.07-29.24,65.32-65.31,65.32h-253.68c-36.07,0-65.32-29.24-65.32-65.32v-104.32Zm65.03,328.81c-29.85,0-54.06-24.2-54.06-54.05s24.21-54.05,54.06-54.05,54.05,24.2,54.05,54.05-24.21,54.05-54.05,54.05Zm255.31,1.54c-30.7,0-55.6-24.89-55.6-55.59s24.9-55.6,55.6-55.6,55.59,24.89,55.59,55.6-24.89,55.59-55.59,55.59Z"/>
  </g>
</svg>